<mxfile host="app.diagrams.net" modified="2023-04-05T00:39:23.520Z" agent="Mozilla/5.0 (Macintosh; Intel Mac OS X 10_15_7) AppleWebKit/537.36 (KHTML, like Gecko) Chrome/111.0.0.0 Safari/537.36" version="21.1.2" etag="atVcNWkjZRwZCf68S_6D" type="github">
  <diagram name="第 1 页" id="-02idUG7nGklGIDdgU3A">
    <mxGraphModel>
      <root>
        <mxCell id="0" />
        <mxCell id="1" parent="0" />
      </root>
    </mxGraphModel>
  </diagram>
</mxfile>
